<svg xmlns="http://www.w3.org/2000/svg" xmlns:xlink="http://www.w3.org/1999/xlink" width="500" zoomAndPan="magnify" viewBox="0 0 375 374.999991" height="500" preserveAspectRatio="xMidYMid meet" version="1.0"><defs><g/><clipPath id="fbfe122c08"><path d="M 172 78.402344 L 216 78.402344 L 216 110 L 172 110 Z M 172 78.402344 " clip-rule="nonzero"/></clipPath><clipPath id="0858449fcc"><path d="M 118.945312 194.777344 L 268.90625 194.777344 L 268.90625 211.152344 L 118.945312 211.152344 Z M 118.945312 194.777344 " clip-rule="nonzero"/></clipPath></defs><path fill="#ffffff" d="M 154.964844 194.761719 L 232.886719 194.761719 L 236.328125 148.773438 C 236.355469 148.390625 236.171875 148.132812 236.0625 148.015625 C 235.949219 147.894531 235.707031 147.691406 235.324219 147.691406 L 152.527344 147.691406 C 152.144531 147.691406 151.898438 147.894531 151.789062 148.015625 C 151.675781 148.132812 151.492188 148.390625 151.523438 148.773438 Z M 234.796875 198.871094 L 153.054688 198.871094 C 151.976562 198.871094 151.082031 198.042969 151 196.96875 L 147.417969 149.078125 C 147.3125 147.664062 147.804688 146.257812 148.769531 145.21875 C 149.738281 144.179688 151.105469 143.582031 152.527344 143.582031 L 235.324219 143.582031 C 236.746094 143.582031 238.113281 144.179688 239.078125 145.21875 C 240.046875 146.257812 240.539062 147.664062 240.433594 149.078125 L 236.847656 196.96875 C 236.769531 198.042969 235.875 198.871094 234.796875 198.871094 " fill-opacity="1" fill-rule="nonzero"/><path fill="#ffffff" d="M 193.925781 147.105469 C 193.300781 147.105469 192.714844 146.824219 192.324219 146.339844 L 184.191406 136.273438 C 183.894531 135.90625 183.734375 135.453125 183.734375 134.980469 L 183.734375 127.773438 C 183.734375 126.636719 184.65625 125.71875 185.792969 125.71875 C 186.929688 125.71875 187.851562 126.636719 187.851562 127.773438 L 187.851562 134.257812 L 193.925781 141.777344 L 200 134.257812 L 200 127.773438 C 200 126.636719 200.921875 125.71875 202.058594 125.71875 C 203.195312 125.71875 204.117188 126.636719 204.117188 127.773438 L 204.117188 134.980469 C 204.117188 135.453125 203.957031 135.90625 203.660156 136.273438 L 195.527344 146.339844 C 195.136719 146.824219 194.546875 147.105469 193.925781 147.105469 " fill-opacity="1" fill-rule="nonzero"/><g clip-path="url(#fbfe122c08)"><path fill="#ffffff" d="M 213.082031 109.113281 C 211.945312 109.113281 211.023438 108.191406 211.023438 107.054688 L 211.023438 99.589844 C 211.023438 90.207031 203.382812 82.546875 193.988281 82.511719 C 193.96875 82.511719 193.949219 82.511719 193.925781 82.511719 C 189.433594 82.511719 185.179688 84.285156 181.941406 87.507812 C 178.640625 90.789062 176.824219 95.132812 176.824219 99.738281 L 176.824219 107.054688 C 176.824219 108.191406 175.902344 109.113281 174.765625 109.113281 C 173.628906 109.113281 172.710938 108.191406 172.710938 107.054688 L 172.710938 99.738281 C 172.710938 96.859375 173.28125 94.058594 174.410156 91.410156 C 175.5 88.855469 177.058594 86.5625 179.035156 84.59375 C 183.050781 80.601562 188.335938 78.402344 193.925781 78.402344 C 193.953125 78.402344 193.976562 78.402344 194.003906 78.402344 C 199.652344 78.421875 204.960938 80.636719 208.953125 84.632812 C 212.941406 88.632812 215.140625 93.945312 215.140625 99.589844 L 215.140625 107.054688 C 215.140625 108.191406 214.21875 109.113281 213.082031 109.113281 " fill-opacity="1" fill-rule="nonzero"/></g><path fill="#ffffff" d="M 181.800781 105.355469 L 181.800781 116.132812 C 181.800781 122.808594 187.238281 128.242188 193.925781 128.242188 C 200.609375 128.242188 206.050781 122.808594 206.050781 116.132812 L 206.050781 104.101562 L 202.140625 99.742188 C 195.945312 104.417969 186.109375 105.234375 181.800781 105.355469 Z M 193.925781 132.351562 C 184.96875 132.351562 177.683594 125.078125 177.683594 116.132812 L 177.683594 103.3125 C 177.683594 102.757812 177.910156 102.226562 178.308594 101.839844 C 178.707031 101.453125 179.246094 101.242188 179.804688 101.257812 C 179.953125 101.261719 194.664062 101.613281 200.871094 95.417969 C 201.273438 95.015625 201.820312 94.800781 202.382812 94.816406 C 202.949219 94.832031 203.484375 95.078125 203.859375 95.5 L 209.640625 101.941406 C 209.980469 102.320312 210.167969 102.808594 210.167969 103.3125 L 210.167969 116.132812 C 210.167969 125.078125 202.878906 132.351562 193.925781 132.351562 " fill-opacity="1" fill-rule="nonzero"/><path fill="#ffffff" d="M 177.683594 108.324219 C 176.019531 108.34375 174.675781 109.703125 174.675781 111.367188 C 174.675781 113.035156 176.019531 114.390625 177.683594 114.414062 Z M 179.742188 118.523438 L 177.726562 118.523438 C 173.773438 118.523438 170.558594 115.316406 170.558594 111.367188 C 170.558594 107.421875 173.773438 104.210938 177.726562 104.210938 L 179.742188 104.210938 C 180.878906 104.210938 181.800781 105.132812 181.800781 106.265625 L 181.800781 116.46875 C 181.800781 117.605469 180.878906 118.523438 179.742188 118.523438 " fill-opacity="1" fill-rule="nonzero"/><path fill="#ffffff" d="M 210.167969 108.324219 L 210.167969 114.414062 C 211.828125 114.390625 213.175781 113.035156 213.175781 111.367188 C 213.175781 109.703125 211.828125 108.34375 210.167969 108.324219 Z M 210.125 118.523438 L 208.109375 118.523438 C 206.972656 118.523438 206.050781 117.605469 206.050781 116.46875 L 206.050781 106.265625 C 206.050781 105.132812 206.972656 104.210938 208.109375 104.210938 L 210.125 104.210938 C 214.078125 104.210938 217.292969 107.421875 217.292969 111.367188 C 217.292969 115.316406 214.078125 118.523438 210.125 118.523438 " fill-opacity="1" fill-rule="nonzero"/><path fill="#ffffff" d="M 160.519531 147.691406 C 160.066406 147.691406 159.609375 147.542969 159.230469 147.238281 C 158.34375 146.527344 158.203125 145.234375 158.917969 144.347656 C 161.195312 141.519531 164.238281 139.457031 167.714844 138.382812 L 185.257812 132.96875 C 186.34375 132.636719 187.492188 133.246094 187.828125 134.332031 C 188.160156 135.417969 187.550781 136.566406 186.460938 136.902344 L 186.394531 136.921875 L 168.933594 142.3125 C 166.242188 143.140625 163.886719 144.738281 162.125 146.925781 C 161.714844 147.429688 161.121094 147.691406 160.519531 147.691406 " fill-opacity="1" fill-rule="nonzero"/><path fill="#ffffff" d="M 227.332031 147.691406 C 226.730469 147.691406 226.132812 147.429688 225.726562 146.925781 C 223.964844 144.738281 221.609375 143.140625 218.917969 142.3125 L 201.386719 136.898438 C 200.300781 136.566406 199.691406 135.417969 200.023438 134.332031 C 200.355469 133.246094 201.507812 132.636719 202.59375 132.96875 L 202.664062 132.992188 L 220.132812 138.382812 C 223.609375 139.457031 226.65625 141.519531 228.933594 144.347656 C 229.648438 145.234375 229.507812 146.527344 228.621094 147.238281 C 228.242188 147.542969 227.785156 147.691406 227.332031 147.691406 " fill-opacity="1" fill-rule="nonzero"/><path fill="#ffffff" d="M 183.796875 181.316406 C 183.359375 181.316406 182.914062 181.179688 182.539062 180.890625 L 172.109375 172.855469 C 171.601562 172.464844 171.308594 171.863281 171.308594 171.226562 C 171.308594 170.589844 171.601562 169.988281 172.109375 169.597656 L 182.539062 161.5625 C 183.441406 160.871094 184.734375 161.035156 185.429688 161.9375 C 186.121094 162.835938 185.953125 164.125 185.054688 164.820312 L 176.734375 171.226562 L 185.054688 177.636719 C 185.953125 178.328125 186.121094 179.617188 185.429688 180.519531 C 185.023438 181.042969 184.414062 181.316406 183.796875 181.316406 " fill-opacity="1" fill-rule="nonzero"/><path fill="#ffffff" d="M 204.054688 181.316406 C 203.4375 181.316406 202.828125 181.042969 202.421875 180.519531 C 201.726562 179.617188 201.894531 178.328125 202.796875 177.636719 L 211.113281 171.226562 L 202.796875 164.820312 C 201.894531 164.125 201.726562 162.835938 202.421875 161.9375 C 203.117188 161.035156 204.410156 160.871094 205.308594 161.5625 L 215.742188 169.597656 C 216.246094 169.988281 216.542969 170.589844 216.542969 171.226562 C 216.542969 171.863281 216.246094 172.464844 215.742188 172.855469 L 205.308594 180.890625 C 204.933594 181.179688 204.492188 181.316406 204.054688 181.316406 " fill-opacity="1" fill-rule="nonzero"/><path fill="#ffffff" d="M 190.128906 187.441406 C 189.949219 187.441406 189.773438 187.417969 189.59375 187.371094 C 188.496094 187.078125 187.84375 185.949219 188.136719 184.851562 L 195.734375 156.535156 C 196.03125 155.441406 197.160156 154.789062 198.257812 155.082031 C 199.355469 155.375 200.007812 156.503906 199.710938 157.601562 L 192.113281 185.917969 C 191.867188 186.835938 191.035156 187.441406 190.128906 187.441406 " fill-opacity="1" fill-rule="nonzero"/><g clip-path="url(#0858449fcc)"><path fill="#ffffff" d="M 123.0625 207.039062 L 264.785156 207.039062 C 264.65625 202.535156 260.945312 198.90625 256.398438 198.90625 L 131.449219 198.90625 C 126.90625 198.90625 123.195312 202.535156 123.0625 207.039062 Z M 266.847656 211.152344 L 121.003906 211.152344 C 119.867188 211.152344 118.945312 210.230469 118.945312 209.097656 L 118.945312 207.285156 C 118.945312 200.398438 124.554688 194.796875 131.449219 194.796875 L 256.398438 194.796875 C 263.296875 194.796875 268.90625 200.398438 268.90625 207.285156 L 268.90625 209.097656 C 268.90625 210.230469 267.984375 211.152344 266.847656 211.152344 " fill-opacity="1" fill-rule="nonzero"/></g><g fill="#fcfbfa" fill-opacity="1"><g transform="translate(79.027786, 273.827531)"><g><path d="M 21.875 -4.875 L 2.09375 -13.5625 L 2.09375 -15.671875 L 21.875 -25.53125 L 21.875 -22.265625 L 6.046875 -14.78125 L 21.875 -8.140625 Z M 21.875 -4.875 "/></g></g></g><g fill="#fcfbfa" fill-opacity="1"><g transform="translate(103.051783, 273.827531)"><g><path d="M 9.367188 -16.339844 L 24.570312 0.628906 L 26.164062 0.628906 L 26.164062 -29.988281 L 20.117188 -29.988281 L 20.117188 -13.019531 L 4.957031 -30.660156 L 3.359375 -30.660156 L 3.359375 0 L 9.367188 0 Z M 9.367188 -16.339844 "/></g></g></g><g fill="#fcfbfa" fill-opacity="1"><g transform="translate(132.619778, 273.827531)"><g><path d="M 9.367188 0 L 9.367188 -30.03125 L 3.359375 -30.03125 L 3.359375 0 Z M 9.367188 0 "/></g></g></g><g fill="#fcfbfa" fill-opacity="1"><g transform="translate(145.387779, 273.827531)"><g><path d="M 1.34375 0 L 7.265625 0 C 13.1875 0 16.210938 -2.898438 16.210938 -9.03125 L 16.210938 -30.03125 L 10.121094 -30.03125 L 10.121094 -9.03125 C 10.121094 -7.351562 8.820312 -6.007812 7.097656 -6.007812 L 1.34375 -6.007812 Z M 1.34375 0 "/></g></g></g><g fill="#fcfbfa" fill-opacity="1"><g transform="translate(164.917772, 273.827531)"><g><path d="M 24.359375 0 L 24.359375 -30.03125 L 18.355469 -30.03125 L 18.355469 -18.019531 L 9.367188 -18.019531 L 9.367188 -30.03125 L 3.359375 -30.03125 L 3.359375 0 L 9.367188 0 L 9.367188 -12.011719 L 18.355469 -12.011719 L 18.355469 0 Z M 24.359375 0 "/></g></g></g><g fill="#fcfbfa" fill-opacity="1"><g transform="translate(192.679763, 273.827531)"><g><path d="M 24.90625 -10.457031 L 24.90625 -30.03125 L 18.941406 -30.03125 L 18.941406 -10.5 C 18.941406 -4.199219 9.199219 -4.199219 9.199219 -10.5 L 9.199219 -30.03125 L 3.191406 -30.03125 L 3.191406 -10.457031 C 3.191406 3.820312 24.90625 3.820312 24.90625 -10.457031 Z M 24.90625 -10.457031 "/></g></g></g><g fill="#fcfbfa" fill-opacity="1"><g transform="translate(220.861753, 273.827531)"><g><path d="M 17.136719 -17.304688 L 5.292969 -30.492188 L 3.359375 -30.492188 L 3.359375 0 L 9.449219 0 L 9.449219 -16.757812 L 17.136719 -8.695312 L 24.820312 -16.757812 L 24.78125 0 L 30.871094 0 L 30.871094 -30.492188 L 28.980469 -30.492188 Z M 17.136719 -17.304688 "/></g></g></g><g fill="#fcfbfa" fill-opacity="1"><g transform="translate(255.13375, 273.827531)"><g/></g></g><g fill="#fcfbfa" fill-opacity="1"><g transform="translate(267.061743, 273.827531)"><g><path d="M 6.214844 0 L 18.019531 -30.03125 L 11.800781 -30.03125 L 0 0 Z M 6.214844 0 "/></g></g></g><g fill="#fcfbfa" fill-opacity="1"><g transform="translate(284.785742, 273.827531)"><g><path d="M 2.09375 -8.140625 L 17.9375 -14.734375 L 2.09375 -22.265625 L 2.09375 -25.53125 L 21.875 -15.671875 L 21.875 -13.5625 L 2.09375 -4.875 Z M 2.09375 -8.140625 "/></g></g></g></svg>